<svg width="1418" height="395" viewBox="0 0 1418 395" fill="none" xmlns="http://www.w3.org/2000/svg">
<path d="M536.612 1.11726C517.545 1.65059 495.945 2.71726 488.612 3.51726C481.278 4.31726 467.545 5.51726 458.078 6.31726C448.612 6.98393 439.012 8.18393 436.745 8.85059C434.478 9.51726 428.745 10.4506 423.945 10.9839C419.145 11.3839 409.012 13.2506 401.278 14.9839C393.545 16.7173 382.478 19.2506 376.612 20.4506C357.678 24.5839 368.478 23.9173 390.212 19.7839C452.612 7.65059 480.878 5.25059 569.278 4.18393C666.345 2.85059 701.412 5.38393 771.278 18.4506C783.012 20.5839 797.412 23.5173 803.278 24.8506C809.145 26.3173 818.478 28.3173 823.945 29.6506C844.478 34.0506 863.012 38.4506 876.212 41.6506C881.145 42.8506 885.945 43.6506 886.878 43.2506C887.812 42.9839 886.478 42.3173 883.945 41.7839C881.412 41.2506 876.612 40.0506 873.278 38.9839C869.945 37.9173 863.145 36.1839 857.945 34.9839C852.878 33.7839 845.278 32.0506 841.278 30.9839C833.412 29.1173 820.478 26.3173 803.278 22.8506C797.412 21.6506 789.678 19.9173 785.945 18.9839C775.545 16.1839 752.212 11.7839 742.612 10.8506C737.812 10.4506 731.812 9.51726 729.145 8.85059C721.412 6.98393 674.745 2.31726 649.945 0.983928C624.212 -0.349405 587.012 -0.349405 536.612 1.11726Z" fill="black" class="svg-elem-1"></path>
<path d="M349.412 26.9839C347.012 28.0506 343.678 28.9839 342.078 28.9839C339.145 28.9839 305.278 39.7839 291.945 44.9839C287.945 46.5839 283.145 48.3173 281.278 48.8506C279.412 49.5173 273.145 52.1839 267.412 54.8506C261.678 57.5173 256.345 59.6506 255.678 59.6506C253.412 59.6506 214.078 79.1173 205.945 84.184C196.478 90.184 193.278 93.784 193.412 98.3173C193.412 101.517 193.545 101.384 195.145 97.384C196.345 94.8506 200.212 91.1173 205.012 87.784C217.012 79.6506 252.878 62.4506 278.612 52.3173C285.545 49.5173 293.145 46.5839 295.278 45.5173C297.545 44.5839 307.412 41.2506 317.278 38.3173C333.945 33.2506 338.612 31.9173 356.612 27.1173C362.878 25.3839 363.012 25.2506 358.612 25.1173C356.078 25.1173 351.945 25.9173 349.412 26.9839Z" fill="black" class="svg-elem-2"></path>
<path d="M897.278 46.9839C913.412 51.9173 922.345 54.4506 925.945 55.1173C928.212 55.6506 935.012 57.6506 941.278 59.6506C947.545 61.6506 963.145 66.4506 975.945 70.1839C999.545 76.9839 1068.75 100.184 1094.61 109.917C1108.21 114.984 1136.48 124.317 1195.95 142.984C1258.21 162.584 1274.08 168.984 1291.28 180.717C1305.01 190.184 1305.55 192.184 1296.48 200.984C1281.01 216.051 1270.21 233.784 1268.48 246.851C1267.28 255.517 1270.48 254.717 1272.75 245.784C1275.95 233.117 1283.28 220.451 1294.48 208.051C1306.88 194.184 1307.68 191.384 1301.01 184.851C1288.21 172.451 1264.75 162.184 1213.95 146.317C1208.88 144.851 1203.41 142.984 1201.95 142.317C1200.48 141.651 1197.28 140.717 1194.88 140.317C1192.48 139.784 1188.88 138.584 1186.88 137.517C1184.88 136.451 1182.35 135.651 1181.15 135.651C1180.08 135.651 1178.61 135.117 1177.81 134.584C1177.15 133.917 1172.75 132.317 1167.95 131.117C1156.08 127.784 1147.68 125.117 1115.28 114.184C1099.95 108.984 1074.75 100.451 1059.28 95.3839C1043.95 90.1839 1030.35 85.5173 1029.28 84.9839C1028.08 84.4506 1025.15 83.5173 1022.61 82.9839C1020.08 82.4506 1017.41 81.6506 1016.61 81.2506C1014.48 79.9173 1002.08 75.7839 1000.21 75.6506C999.145 75.6506 996.478 74.8506 994.212 73.7839C986.745 70.5839 969.145 64.8506 956.612 61.5173C950.078 59.7839 938.612 56.5839 931.278 54.3173C923.945 51.9173 913.278 48.9839 907.545 47.5173C895.678 44.5839 888.078 44.3173 897.278 46.9839Z" fill="black" class="svg-elem-3"></path>
<path d="M191.412 118.051C191.012 118.717 190.078 123.384 189.278 128.451C187.012 143.384 184.078 156.717 179.812 172.984C167.412 219.117 163.945 244.317 167.945 258.184C172.345 273.651 191.145 284.051 210.345 281.651C229.012 279.384 243.278 275.117 311.278 251.251C357.412 235.117 418.345 220.184 468.612 212.984C479.678 211.251 581.145 207.651 615.678 207.651C650.345 207.651 723.278 211.251 750.612 214.317C786.612 218.451 817.678 222.451 834.612 225.117C839.412 225.917 848.078 227.384 853.945 228.317C883.012 232.851 904.612 236.317 931.945 241.117C948.478 243.917 965.278 246.584 969.278 246.984C980.212 248.184 1015.28 255.917 1063.28 267.517C1102.08 276.984 1152.35 288.317 1170.35 291.651C1185.95 294.451 1218.88 296.984 1241.41 296.984C1262.61 296.984 1269.28 296.051 1265.41 293.784C1264.75 293.384 1250.88 292.851 1234.48 292.451C1192.08 291.784 1159.81 286.717 1095.28 270.984C1030.21 255.117 1016.21 252.051 971.278 244.184C964.745 243.117 954.745 241.251 949.278 240.184C940.612 238.584 915.278 234.584 886.612 230.184C881.812 229.517 865.678 226.851 850.612 224.317C835.545 221.784 815.545 218.851 805.945 217.651C796.478 216.584 784.078 215.117 778.612 214.317C758.212 211.651 713.012 207.651 688.478 206.317C633.412 203.384 512.612 205.251 472.612 209.651C455.145 211.651 416.345 218.717 399.945 222.984C395.945 224.051 383.945 227.117 373.278 229.651C362.612 232.317 347.412 236.584 339.278 238.984C302.745 250.184 284.612 256.051 266.612 262.317C236.878 272.584 218.212 277.384 206.612 277.384C189.945 277.517 180.345 272.717 174.478 261.384C171.678 255.784 171.278 253.384 171.412 240.984C171.545 226.051 174.345 210.317 186.078 159.651C193.012 129.517 195.278 111.784 191.412 118.051Z" fill="black" class="svg-elem-4"></path>
<path d="M141.145 182.717C135.545 185.117 130.212 187.651 129.145 188.317C128.078 189.117 125.145 190.851 122.612 192.184C116.345 195.517 101.412 206.717 101.278 208.051C101.278 208.717 103.812 207.117 107.012 204.717C118.745 195.384 129.545 189.384 146.612 182.851C153.278 180.184 156.612 178.451 154.612 178.451C152.745 178.451 146.745 180.317 141.145 182.717Z" fill="black" class="svg-elem-5"></path>
<path d="M94.4784 212.851C92.745 214.317 91.6784 215.784 92.0784 216.184C92.4784 216.584 94.2117 215.517 95.945 213.651C99.6784 209.651 98.8784 209.251 94.4784 212.851Z" fill="black" class="svg-elem-6"></path>
<path d="M69.5451 236.184C43.5451 261.517 26.7451 276.584 19.1451 281.384C16.0784 283.251 12.0784 286.184 10.2117 287.917C8.34508 289.651 5.27841 292.317 3.41174 293.917C-1.78826 298.451 -1.12159 301.651 5.94508 304.851C10.4784 306.851 55.9451 309.517 57.6784 307.784C58.2117 307.251 48.2117 306.317 35.4117 305.917C19.5451 305.384 10.4784 304.451 7.27841 303.117C-0.988257 299.651 0.87841 296.851 23.1451 280.317C37.4117 269.651 89.0117 221.117 86.2117 220.984C85.5451 220.984 78.0784 227.784 69.5451 236.184Z" fill="black" class="svg-elem-7"></path>
<path d="M1298.61 240.851C1298.61 241.517 1300.88 243.384 1303.68 245.117C1323.01 256.584 1341.41 270.184 1368.88 293.251C1379.95 302.584 1394.61 314.051 1401.55 318.717C1408.35 323.384 1414.08 328.184 1414.35 329.384C1414.75 331.517 1406.88 334.317 1389.95 338.184C1379.95 340.584 1370.21 346.317 1368.61 350.717C1367.15 354.984 1368.48 357.784 1380.61 377.251C1384.35 383.251 1386.61 388.317 1386.21 389.651C1385.41 391.384 1379.95 391.651 1343.68 391.784C1295.95 392.051 1302.61 393.784 1353.55 394.584C1383.15 394.984 1383.95 394.851 1386.75 392.051C1390.48 388.317 1389.68 385.384 1381.55 372.851C1373.41 360.584 1371.28 354.584 1373.41 349.917C1375.41 345.651 1378.21 344.451 1397.68 339.517C1406.61 337.251 1414.75 334.584 1415.81 333.651C1420.08 329.384 1414.21 323.384 1388.88 306.317C1387.28 305.251 1383.81 302.584 1381.28 300.317C1378.61 298.184 1373.81 294.184 1370.61 291.651C1367.41 289.117 1362.21 284.851 1359.15 282.317C1346.08 271.384 1340.21 266.584 1330.75 259.384C1325.15 255.117 1320.21 251.651 1319.68 251.651C1319.28 251.651 1314.75 248.984 1309.68 245.651C1300.35 239.517 1298.61 238.717 1298.61 240.851Z" fill="black" class="svg-elem-8"></path>
<path d="M289.278 284.984C289.278 300.584 284.612 307.784 266.212 320.184C255.812 327.251 219.145 344.717 204.478 349.517C200.745 350.717 196.478 352.584 195.145 353.651C192.745 355.517 192.878 355.651 196.612 354.851C210.212 351.784 250.612 333.784 265.945 323.784C278.345 315.651 281.945 312.451 286.745 304.451C290.078 298.984 291.012 295.917 291.545 287.651C292.078 280.717 291.812 277.117 290.745 276.451C289.678 275.784 289.278 278.184 289.278 284.984Z" fill="black" class="svg-elem-9"></path>
<path d="M1152.48 306.984C1145.28 324.184 1159.41 341.517 1196.08 360.584C1204.35 364.984 1212.48 368.851 1213.95 369.251C1215.41 369.784 1222.61 372.317 1229.95 374.984C1247.95 381.651 1260.08 384.717 1271.28 385.784C1283.01 386.851 1281.81 385.251 1269.01 382.851C1231.01 375.651 1186.88 355.784 1165.68 336.451C1154.75 326.451 1152.88 321.251 1156.21 310.051C1157.28 306.184 1157.41 304.584 1156.21 303.384C1155.01 302.184 1154.08 303.117 1152.48 306.984Z" fill="black" class="svg-elem-10"></path>
<path d="M72.345 311.251C77.0117 316.584 76.345 318.184 54.745 352.851C46.8784 365.517 42.6117 374.317 42.6117 378.051C42.6117 388.984 60.345 388.317 105.278 375.784C110.078 374.451 117.812 372.184 122.612 370.984C137.545 366.984 153.278 361.917 152.745 361.384C152.078 360.584 133.812 364.984 107.412 372.184C71.545 382.051 47.6784 385.117 45.6784 380.317C44.4784 376.984 48.745 367.784 60.6117 347.784C66.8784 337.384 71.945 328.717 71.945 328.317C71.945 327.917 73.545 325.251 75.4117 322.317C78.4784 317.651 78.745 316.851 77.0117 313.384C76.0784 311.384 74.0784 309.517 72.6117 309.117C70.0784 308.717 70.0784 308.717 72.345 311.251Z" fill="black" class="svg-elem-11"></path>
<path d="M706.745 63.384C705.812 65.5173 705.278 69.384 705.545 71.784C705.812 75.5173 706.878 76.7173 711.012 78.8507C715.412 80.984 717.012 81.1173 721.278 79.784C726.878 78.184 735.945 69.6507 735.945 66.0507C735.945 61.5173 730.878 61.9173 725.012 66.8507C719.412 71.6507 714.745 72.984 714.345 69.9173C714.212 69.1173 714.078 66.4507 714.078 64.3173C713.945 58.584 709.012 58.0507 706.745 63.384Z" fill="black" class="svg-elem-12"></path>
<path d="M243.012 92.984C235.812 97.2506 233.678 105.117 238.345 109.384C243.545 114.184 250.478 110.051 245.945 104.984C243.145 101.917 243.412 100.051 246.612 98.984C249.945 97.9173 253.145 100.317 255.278 105.517C256.745 108.984 256.478 110.317 251.812 118.851C241.812 137.517 236.212 155.784 231.278 186.717C230.612 191.117 229.678 192.184 224.478 194.717C220.612 196.451 218.212 198.717 217.678 200.717C216.745 204.717 218.078 214.851 220.612 221.651C221.678 224.584 222.478 229.517 222.612 232.584C222.612 237.251 223.145 238.317 225.012 238.317C231.278 238.317 231.945 233.651 227.678 216.851C226.078 210.317 225.145 204.717 225.545 204.317C227.678 202.184 294.212 180.984 298.745 180.984C299.545 180.984 299.812 181.917 299.412 183.251C297.545 187.917 296.078 204.584 297.012 208.984C297.945 212.984 298.612 213.651 301.945 213.651H305.945V203.651C305.945 194.051 309.012 175.651 310.478 175.651C310.878 175.651 312.478 176.584 313.812 177.651C315.278 178.717 318.478 179.651 321.012 179.651C327.412 179.651 334.745 171.784 338.745 160.984L341.678 152.851L344.078 156.984C347.278 162.184 351.678 163.917 357.812 162.184C362.078 160.984 367.945 155.651 367.945 152.851C367.945 152.317 368.612 150.184 369.278 148.184C370.745 144.584 370.745 144.584 374.612 152.717C378.745 161.517 382.478 163.517 385.278 158.451C386.345 156.317 385.945 154.717 383.278 150.851C379.012 144.451 377.278 138.184 377.278 128.184C377.278 122.851 376.612 119.384 375.412 118.451C371.945 115.517 369.678 118.317 367.278 128.717C362.478 149.517 359.278 156.984 355.145 156.984C351.945 156.984 348.078 146.451 347.012 134.851C346.078 125.251 345.678 124.317 343.012 123.917C339.278 123.384 338.078 126.184 336.612 137.651C334.478 154.984 327.278 170.317 321.145 170.317C318.078 170.317 315.945 166.451 315.945 160.984C315.945 158.451 315.145 156.584 313.812 156.051C311.012 154.984 307.945 158.984 307.945 163.651C307.945 166.717 307.145 167.251 300.878 168.717C297.012 169.517 293.278 170.317 292.478 170.317C289.412 170.317 285.945 162.051 271.812 121.117C265.278 102.584 262.345 96.7173 257.812 93.1173C253.412 89.6506 248.478 89.5173 243.012 92.984ZM267.145 137.917C270.745 148.851 275.412 161.517 277.412 166.184C281.278 174.717 281.145 176.851 276.478 176.984C275.678 176.984 267.012 179.651 257.278 182.984L239.545 188.851L240.345 178.584C240.745 172.984 243.012 162.051 245.278 154.317C249.678 139.651 258.345 118.317 259.812 118.317C260.345 118.317 263.545 127.117 267.145 137.917Z" fill="black" class="svg-elem-13"></path>
<path d="M438.078 103.517C436.345 104.184 433.945 108.984 430.478 118.717C424.612 135.651 420.878 142.051 416.478 143.117C408.612 145.117 406.345 140.051 406.878 122.051C407.278 108.051 406.078 104.317 401.545 107.117C399.678 108.317 399.145 110.984 398.878 121.784C398.345 138.984 399.412 145.384 403.412 150.317C406.212 153.517 407.945 154.317 412.212 154.317C421.678 154.317 429.278 148.184 432.745 137.784L435.012 131.117L438.345 138.184C442.212 146.451 447.545 150.317 455.012 150.317C461.812 150.317 465.278 148.317 465.278 144.317C465.278 140.851 463.278 140.051 455.412 139.917C453.278 139.917 450.345 138.584 448.745 137.117C446.345 134.584 445.945 132.451 445.545 119.251C445.012 102.717 444.212 101.117 438.078 103.517Z" fill="black" class="svg-elem-14"></path>
<path d="M533.945 88.584C521.412 95.1173 510.478 97.2507 489.278 97.5173L469.945 97.6507L469.545 109.517C469.278 118.717 469.945 123.917 472.078 131.517C475.278 142.717 477.278 145.784 480.478 144.584C483.945 143.251 484.478 140.051 481.945 134.851C480.745 132.317 479.412 125.784 479.012 120.584C478.212 107.917 479.278 106.717 490.078 107.384L498.345 107.917L497.278 112.184C495.945 118.051 498.078 132.584 501.012 137.517C502.878 140.717 504.345 141.651 507.278 141.651C512.345 141.651 513.278 138.051 509.545 133.117C506.478 128.851 504.478 112.717 506.345 107.517C507.412 104.717 509.145 103.784 515.545 102.451C519.812 101.384 523.945 100.451 524.612 100.184C525.412 99.784 525.945 104.317 526.078 111.917C526.345 127.384 530.078 138.984 534.745 138.984C539.278 138.984 541.012 135.117 537.945 131.651C535.945 129.384 535.278 126.317 534.878 116.317L534.345 103.651L540.478 97.6507C547.278 90.8507 547.545 90.184 544.478 87.1173C541.812 84.4507 541.945 84.4507 533.945 88.584Z" fill="black" class="svg-elem-15"></path>
<path d="M570.345 93.1173C563.945 96.4506 561.945 99.5173 559.145 110.317C554.478 128.851 562.612 167.117 576.345 191.117C579.812 197.117 581.145 198.317 584.212 198.317C589.412 198.317 589.945 196.184 586.078 190.584C579.012 180.184 571.278 158.717 568.612 141.651L567.812 136.317L576.345 136.184C582.745 136.184 586.078 135.384 589.678 133.117C601.545 125.784 604.878 100.851 595.012 93.1173C590.345 89.384 577.412 89.384 570.345 93.1173ZM590.078 102.984C593.412 108.184 591.812 117.917 586.745 122.584C582.345 126.584 575.278 128.451 569.812 127.117C566.478 126.184 566.345 125.917 567.145 119.384C568.345 110.584 571.012 105.517 576.345 102.317C582.345 98.584 587.412 98.8506 590.078 102.984Z" fill="black" class="svg-elem-16"></path>
<path d="M616.078 90.0506C613.812 94.3173 613.678 120.851 615.812 126.051C619.012 133.784 629.012 136.584 637.678 132.184C643.945 128.984 647.678 125.117 649.278 120.184C651.145 114.584 652.745 114.451 653.945 119.651C655.812 128.317 663.812 134.317 673.678 134.317C685.278 134.317 685.678 126.317 674.078 124.984C664.078 123.784 663.278 122.051 663.278 103.917V88.3173H659.278C655.545 88.3173 654.878 89.1173 648.345 102.317C640.612 118.051 633.812 125.651 628.878 124.317C623.278 122.584 622.478 119.917 622.878 103.651C623.278 88.7173 623.145 88.3173 620.345 87.9173C618.478 87.6506 616.878 88.4506 616.078 90.0506Z" fill="black" class="svg-elem-17"></path>
<path d="M688.878 88.234C688.612 88.7558 687.545 94.3655 686.612 100.497C683.678 120.326 686.612 129.85 696.478 132.198C704.478 134.285 711.678 131.154 716.612 123.588C721.145 116.543 722.079 116.152 723.279 120.196C725.679 128.023 735.279 132.589 744.745 130.632C749.412 129.719 749.945 129.197 749.945 125.806C749.945 122.022 749.679 121.892 743.012 121.5C737.279 121.24 735.545 120.457 733.279 117.717C730.879 114.717 730.612 112.76 730.879 103.758C731.279 93.1914 731.279 93.1914 727.812 92.8C723.545 92.2782 720.745 95.8005 715.812 107.411C711.412 117.717 705.278 124.11 700.345 123.588C694.878 122.935 693.812 118.5 695.812 105.324C698.078 91.104 697.678 88.1035 693.012 87.5817C691.145 87.3208 689.278 87.5817 688.878 88.234Z" fill="black" class="svg-elem-18"></path>
<path d="M787.145 93.9174C786.745 96.0507 785.412 100.984 784.212 104.984C783.145 108.984 782.078 116.317 782.078 121.251C781.945 133.251 784.612 136.317 795.278 136.184C804.212 136.184 808.078 133.651 814.612 123.651L819.278 116.451L820.078 124.451C821.012 134.051 822.745 137.651 828.345 140.984C832.878 143.784 841.945 144.584 843.278 142.317C844.745 139.917 841.145 136.984 837.012 136.984C834.745 136.984 831.812 135.651 829.945 133.651C825.678 129.517 825.545 120.984 829.278 107.384C830.878 101.784 831.412 97.2507 830.745 96.584C827.945 93.784 824.478 96.984 817.812 108.317C809.945 121.517 801.412 130.317 796.478 130.317C791.945 130.317 787.945 125.784 787.945 120.584C787.945 118.184 789.145 111.917 790.612 106.584C794.078 94.0507 794.078 90.3174 790.612 90.3174C788.878 90.3174 787.678 91.5174 787.145 93.9174Z" fill="black" class="svg-elem-19"></path>
<path d="M925.412 87.784C915.812 91.5173 903.412 105.784 895.412 121.784C891.278 130.184 890.212 131.384 885.545 132.717C874.745 135.917 872.878 144.317 882.878 144.317H887.545L887.412 152.317L887.278 160.317H891.945H896.612L897.412 151.251C897.812 146.317 898.745 141.651 899.545 140.851C901.012 139.384 911.678 140.851 922.612 144.184L928.612 145.917V158.717C928.612 172.051 929.678 174.984 934.078 174.051C936.212 173.651 936.745 171.784 937.545 161.117C937.945 154.184 939.012 147.384 939.678 145.784C941.412 142.051 945.545 116.984 946.345 106.584C947.012 95.9173 944.878 90.584 939.145 88.184C934.078 86.0507 929.945 85.9173 925.412 87.784ZM935.678 97.2507C937.945 99.5173 937.678 108.184 934.612 123.117C933.145 130.317 931.678 136.317 931.412 136.584C931.145 136.851 929.412 136.451 927.545 135.784C925.545 134.984 919.945 133.784 915.012 132.984C901.545 130.717 902.078 131.251 905.945 123.517C909.678 116.184 929.012 95.6507 932.212 95.6507C933.145 95.6507 934.745 96.3173 935.678 97.2507Z" fill="black" class="svg-elem-20"></path>
<path d="M978.212 127.917C974.878 129.651 975.412 131.917 979.945 135.917C986.745 141.917 985.412 144.851 973.412 150.584C967.678 153.384 960.078 158.051 956.345 160.851C952.612 163.784 948.078 166.851 946.078 167.517C942.345 168.984 941.812 171.117 942.478 182.317C943.012 191.251 944.612 194.317 948.745 194.317C952.078 194.317 952.212 194.184 951.945 185.917C951.545 173.251 951.145 173.917 957.678 174.851C960.745 175.384 965.945 176.584 969.278 177.517C972.612 178.584 980.478 180.851 987.012 182.451C993.412 184.184 998.612 186.051 998.612 186.717C998.612 187.384 995.278 191.251 991.278 195.517C987.278 199.784 983.945 203.917 983.945 204.851C983.945 205.651 985.545 207.117 987.412 207.917C990.478 209.384 991.278 209.117 995.678 204.317C1009.28 190.051 1011.01 184.717 1003.95 179.651C999.412 176.451 997.945 171.784 996.745 156.984C995.678 144.184 992.878 135.651 988.212 131.384C983.678 127.117 981.012 126.317 978.212 127.917ZM987.278 159.251C987.678 162.851 988.345 167.651 988.745 169.917C989.145 172.317 989.012 174.317 988.612 174.317C987.145 174.317 964.612 168.717 963.545 168.051C963.012 167.651 963.945 166.317 965.545 164.984C969.545 161.917 984.345 152.984 985.545 152.984C986.078 152.984 986.745 155.784 987.278 159.251Z" fill="black" class="svg-elem-21"></path>
<path d="M1040.48 151.917C1037.01 152.584 1033.01 154.984 1029.95 157.917C1017.41 170.184 1018.35 188.584 1031.95 195.251C1042.21 200.317 1062.08 198.984 1065.28 192.984C1068.08 187.651 1065.95 186.717 1051.95 186.851C1040.61 186.984 1038.35 186.584 1035.01 184.184C1030.61 180.851 1028.88 174.584 1032.88 176.317C1034.21 176.851 1037.41 177.917 1039.95 178.717C1057.95 183.784 1075.68 162.717 1060.61 154.184C1055.41 151.251 1047.28 150.317 1040.48 151.917ZM1054.48 160.184C1056.75 162.984 1053.68 167.251 1048.35 169.117C1043.81 170.584 1034.61 168.717 1034.61 166.317C1034.61 165.117 1040.75 160.451 1043.95 159.251C1047.68 157.917 1053.01 158.317 1054.48 160.184Z" fill="black" class="svg-elem-22"></path>
<path d="M1119.68 169.917C1118.61 171.251 1116.21 174.984 1114.35 178.317C1109.81 186.184 1096.75 199.384 1092.35 200.451C1087.81 201.651 1086.35 199.117 1087.41 191.251C1088.21 185.251 1088.08 184.984 1084.88 184.984C1080.75 184.984 1076.61 192.717 1077.81 198.451C1080.61 212.317 1092.61 213.651 1107.28 201.784L1112.88 197.251L1114.48 201.651C1117.95 211.251 1127.28 218.184 1137.01 218.317C1140.88 218.317 1141.28 218.717 1141.28 222.184C1141.28 228.984 1144.48 230.717 1155.41 230.051C1163.55 229.517 1166.48 228.584 1173.41 224.451C1177.95 221.784 1181.81 219.784 1182.08 219.917C1182.21 220.184 1183.68 223.117 1185.15 226.584C1187.15 231.384 1189.15 233.517 1193.41 235.784C1198.35 238.317 1200.75 238.584 1213.01 238.051C1224.48 237.651 1227.15 237.117 1228.61 235.117C1229.68 233.784 1230.08 231.784 1229.68 230.717C1229.01 229.117 1227.01 228.984 1218.08 229.651C1202.88 230.984 1196.35 229.117 1193.68 222.584C1192.61 219.917 1190.88 216.717 1189.81 215.517C1188.21 213.784 1188.35 212.451 1190.88 206.584C1193.68 200.051 1193.68 199.251 1191.95 193.917C1188.35 183.784 1177.41 182.317 1164.75 190.317C1153.55 197.517 1154.21 205.251 1166.35 210.984C1169.41 212.451 1171.95 213.917 1171.95 214.451C1171.95 215.784 1159.55 220.851 1154.08 221.784L1148.88 222.717L1149.68 217.517C1150.88 209.784 1149.41 208.317 1140.08 208.317C1133.55 208.317 1131.55 207.784 1128.75 205.117C1122.21 198.984 1121.55 186.717 1127.28 175.651C1129.01 172.184 1129.01 171.651 1127.15 169.784C1124.48 166.984 1122.21 167.117 1119.68 169.917ZM1182.35 198.584C1182.61 200.584 1181.95 203.651 1181.01 205.517L1179.28 208.717L1173.28 205.917C1169.95 204.317 1167.28 202.184 1167.28 201.251C1167.28 198.717 1174.88 194.184 1178.61 194.584C1181.15 194.851 1182.08 195.917 1182.35 198.584Z" fill="black" class="svg-elem-23"></path>
<path d="M777.945 256.184C775.678 257.117 773.145 258.851 772.078 260.051C769.412 263.384 773.278 264.451 778.478 261.784C783.545 259.117 787.812 259.117 791.678 261.784C798.212 266.317 794.345 272.717 780.612 279.651C774.478 282.717 768.478 286.717 767.278 288.584C764.478 292.851 763.145 300.317 765.145 301.517C767.945 303.251 792.478 306.317 793.678 305.117C795.812 302.984 788.878 299.784 779.678 298.851C771.545 298.051 770.612 297.651 770.612 294.984C770.612 290.984 773.545 288.717 785.278 283.251C797.145 277.917 800.345 274.184 799.678 265.917C799.412 261.384 798.478 259.917 794.745 257.384C789.678 253.917 783.945 253.517 777.945 256.184Z" fill="black" class="svg-elem-24"></path>
<path d="M814.478 260.584C814.345 261.251 814.345 262.184 814.478 262.717C814.612 263.384 813.412 268.584 811.812 274.451C808.078 288.451 808.745 290.317 816.478 285.784C823.145 281.917 829.412 281.384 832.478 284.451C840.345 292.184 832.078 308.984 820.345 308.984C816.878 308.984 814.745 307.917 811.945 304.984C807.678 300.451 805.278 299.917 805.278 303.384C805.278 308.717 813.545 314.317 821.412 314.317C831.545 314.317 839.012 307.251 840.745 296.184C842.745 282.717 833.278 273.517 821.145 276.984C816.745 278.317 816.745 278.317 818.878 271.384C820.078 267.117 820.878 266.317 823.145 266.851C824.745 267.251 830.078 267.917 835.145 268.451C843.545 269.251 844.212 269.251 843.678 266.851C843.412 264.851 840.745 263.917 830.612 262.051C815.945 259.384 814.612 259.251 814.478 260.584Z" fill="black" class="svg-elem-25"></path>
<path d="M881.812 273.251C876.345 274.584 868.478 283.384 866.745 289.917C864.478 297.784 864.878 312.584 867.412 316.984C872.745 325.784 884.745 327.784 892.478 320.851C904.078 310.717 906.612 283.917 896.745 275.784C893.678 273.251 886.478 271.917 881.812 273.251ZM894.212 281.784C897.412 284.984 897.545 285.784 896.878 294.317C895.278 313.117 887.278 322.851 876.612 318.851C871.278 316.717 869.012 303.651 872.078 292.584C872.745 289.784 875.278 285.517 877.545 282.984C882.745 276.984 889.012 276.584 894.212 281.784Z" fill="black" class="svg-elem-26"></path>
<path d="M919.412 296.851C903.012 313.251 903.012 312.717 918.612 315.784C923.412 316.717 927.812 317.917 928.345 318.317C928.878 318.851 928.745 322.051 927.945 325.651C926.878 330.317 926.878 332.451 927.945 333.517C930.078 335.517 932.745 331.651 933.812 324.984C934.612 320.051 935.012 319.651 938.745 319.651C941.945 319.651 942.745 319.117 942.345 317.251C942.078 316.051 940.612 314.851 939.012 314.584C935.678 314.051 935.678 314.717 939.412 295.784C941.945 282.584 941.945 282.317 937.545 282.317C934.612 282.317 930.878 285.384 919.412 296.851ZM932.478 301.117C931.278 306.584 930.078 311.384 929.812 311.917C929.412 312.584 925.945 311.917 917.412 309.384C916.078 309.117 918.478 305.784 924.612 299.651C929.678 294.584 933.945 290.584 934.212 290.851C934.478 291.117 933.678 295.784 932.478 301.117Z" fill="black" class="svg-elem-27"></path>
<path d="M977.678 295.651C975.278 297.117 973.278 298.851 973.278 299.651C973.278 302.184 977.278 302.584 980.612 300.451C985.012 297.517 991.412 297.784 994.612 300.984C999.945 306.317 996.745 310.451 981.412 318.451C969.545 324.451 965.945 328.984 966.878 336.851C967.278 340.051 967.945 340.451 977.278 341.784C982.745 342.717 989.278 343.784 991.678 344.317C995.145 345.117 995.945 344.851 995.945 343.251C995.945 340.451 992.745 338.851 985.278 337.784C974.612 336.184 971.945 335.517 971.945 334.317C971.945 331.251 979.545 324.717 985.545 322.717C995.812 318.984 1001.41 313.651 1002.21 306.184C1002.88 300.584 1002.61 299.784 998.612 296.584C993.278 292.051 984.078 291.651 977.678 295.651Z" fill="black" class="svg-elem-28"></path>
<path d="M1019.95 302.851C1017.41 304.584 1013.81 308.851 1011.95 312.451C1009.15 317.917 1008.61 320.851 1008.61 330.317C1008.61 340.051 1009.01 342.317 1011.68 345.917C1017.41 353.917 1030.08 354.584 1037.01 347.251C1045.28 338.451 1049.01 315.517 1043.41 307.251C1038.08 299.384 1027.81 297.384 1019.95 302.851ZM1033.95 306.317C1039.55 308.451 1041.68 315.384 1039.95 325.251C1036.88 341.517 1029.55 349.784 1021.01 346.184C1018.48 345.117 1016.21 342.851 1015.01 339.784C1011.01 330.317 1016.21 311.117 1023.68 306.984C1028.08 304.717 1029.41 304.584 1033.95 306.317Z" fill="black" class="svg-elem-29"></path>
<path d="M1061.68 311.651C1053.81 316.451 1056.61 319.384 1065.81 316.051C1072.48 313.517 1077.81 314.451 1080.48 318.717C1083.01 322.851 1078.88 327.517 1067.28 333.517C1055.81 339.384 1050.61 345.117 1050.61 351.784C1050.61 354.717 1051.41 355.784 1053.68 356.184C1068.35 359.384 1079.01 360.984 1079.68 360.317C1081.95 358.051 1077.15 354.851 1069.81 353.917C1057.95 352.184 1055.95 351.651 1055.95 350.451C1055.95 347.251 1063.15 341.384 1070.48 338.451C1081.01 334.317 1086.61 328.317 1086.61 321.117C1086.61 310.451 1072.35 305.117 1061.68 311.651Z" fill="black" class="svg-elem-30"></path>
<path d="M847.012 316.451C846.612 317.517 847.145 319.384 848.212 320.451C849.945 322.184 850.345 322.184 851.812 320.451C852.745 319.251 853.278 317.384 852.745 316.317C851.812 313.651 848.078 313.784 847.012 316.451Z" fill="black" class="svg-elem-31"></path>
<path d="M948.612 335.651C948.078 336.584 948.612 338.184 949.812 339.384C951.812 341.384 952.212 341.384 953.278 339.651C953.945 338.584 954.345 336.984 954.212 336.317C953.545 334.317 949.678 333.917 948.612 335.651Z" fill="black" class="svg-elem-32"></path>
<path d="M1111.55 320.717C1102.08 327.117 1097.68 332.451 1094.48 341.517C1091.41 350.584 1091.28 354.584 1094.21 360.584C1095.81 363.917 1098.08 366.051 1102.35 367.917C1109.41 371.117 1113.15 370.317 1119.41 364.584C1123.15 361.117 1124.21 359.117 1124.75 353.651C1125.15 349.517 1124.75 345.784 1123.68 343.651C1121.28 339.117 1113.68 335.384 1108.35 336.184C1105.95 336.584 1103.95 336.451 1103.95 336.184C1103.95 333.651 1107.68 329.784 1113.95 325.517C1120.88 320.984 1122.75 318.051 1120.08 316.451C1119.41 316.051 1115.55 317.917 1111.55 320.717ZM1113.95 342.851C1121.28 345.917 1121.95 355.117 1115.28 361.784C1111.28 365.784 1106.75 365.917 1102.08 362.184C1098.88 359.651 1098.48 358.584 1098.88 351.917C1099.28 345.384 1099.68 344.184 1102.61 342.717C1106.88 340.584 1108.35 340.584 1113.95 342.851Z" fill="black" class="svg-elem-33"></path>
</svg>
